<svg xmlns="http://www.w3.org/2000/svg" viewBox="0 0 24 24" width="24" height="24">
<!-- unluminous theme::icon, material set: debug-run -->
<circle cx="9.400" cy="9.660" r="1.615" fill="#1e2530" stroke="none" stroke-width="0.000"/>
<rect x="6.680" y="10.510" width="5.440" height="7.820" rx="2.000" fill="#1e2530" stroke="none" stroke-width="0.000"/>
<line x1="6.680" y1="11.870" x2="4.680" y2="11.870" stroke="#1e2530" stroke-width="1.190" stroke-linecap="round"/>
<line x1="12.120" y1="11.870" x2="14.120" y2="11.870" stroke="#1e2530" stroke-width="1.190" stroke-linecap="round"/>
<line x1="6.680" y1="14.080" x2="4.680" y2="14.080" stroke="#1e2530" stroke-width="1.190" stroke-linecap="round"/>
<line x1="12.120" y1="14.080" x2="14.120" y2="14.080" stroke="#1e2530" stroke-width="1.190" stroke-linecap="round"/>
<line x1="6.680" y1="16.290" x2="4.680" y2="16.290" stroke="#1e2530" stroke-width="1.190" stroke-linecap="round"/>
<line x1="12.120" y1="16.290" x2="14.120" y2="16.290" stroke="#1e2530" stroke-width="1.190" stroke-linecap="round"/>
<line x1="8.380" y1="8.555" x2="7.190" y2="7.535" stroke="#1e2530" stroke-width="1.190" stroke-linecap="round"/>
<line x1="10.420" y1="8.555" x2="11.610" y2="7.535" stroke="#1e2530" stroke-width="1.190" stroke-linecap="round"/>
<polygon points="14.900,5.300 14.985,4.852 15.252,4.697 15.683,4.843 19.417,6.957 19.763,7.249 19.763,7.551 19.417,7.843 15.683,9.957 15.252,10.103 14.985,9.948 14.900,9.500" fill="#1e2530" stroke="none" stroke-width="0.000" stroke-linejoin="round" stroke-linecap="round"/>
</svg>
